<svg width="24" height="24" viewBox="0 0 24 24" fill="none" xmlns="http://www.w3.org/2000/svg">
<g clip-path="url(#clip0_2005_5865)">
<mask id="mask0_2005_5865" style="mask-type:luminance" maskUnits="userSpaceOnUse" x="0" y="0" width="24" height="24">
<path d="M24 0H0V24H24V0Z" fill="white" style="fill:white;fill-opacity:1;"/>
</mask>
<g mask="url(#mask0_2005_5865)">
<path opacity="0.2" d="M2.09961 21.9998V6.02979C2.09961 4.01979 3.09966 3.00977 5.08966 3.00977H11.3196C13.3096 3.00977 14.2996 4.01979 14.2996 6.02979V21.9998" fill="#212121" style="fill:#212121;fill:color(display-p3 0.1294 0.1294 0.1294);fill-opacity:1;"/>
<path d="M10.7488 9H5.79883C5.38883 9 5.04883 8.66 5.04883 8.25C5.04883 7.84 5.38883 7.5 5.79883 7.5H10.7488C11.1588 7.5 11.4988 7.84 11.4988 8.25C11.4988 8.66 11.1588 9 10.7488 9Z" fill="#212121" style="fill:#212121;fill:color(display-p3 0.1294 0.1294 0.1294);fill-opacity:1;"/>
<path d="M10.7488 12.75H5.79883C5.38883 12.75 5.04883 12.41 5.04883 12C5.04883 11.59 5.38883 11.25 5.79883 11.25H10.7488C11.1588 11.25 11.4988 11.59 11.4988 12C11.4988 12.41 11.1588 12.75 10.7488 12.75Z" fill="#212121" style="fill:#212121;fill:color(display-p3 0.1294 0.1294 0.1294);fill-opacity:1;"/>
<path d="M8.25 22.75C7.84 22.75 7.5 22.41 7.5 22V18.25C7.5 17.84 7.84 17.5 8.25 17.5C8.66 17.5 9 17.84 9 18.25V22C9 22.41 8.66 22.75 8.25 22.75Z" fill="#212121" style="fill:#212121;fill:color(display-p3 0.1294 0.1294 0.1294);fill-opacity:1;"/>
<path d="M23 21.2491H20.73V18.2491C21.68 17.9391 22.37 17.0491 22.37 15.9991V13.9991C22.37 12.6891 21.3 11.6191 19.99 11.6191C18.68 11.6191 17.61 12.6891 17.61 13.9991V15.9991C17.61 17.0391 18.29 17.9191 19.22 18.2391V21.2491H1C0.59 21.2491 0.25 21.5891 0.25 21.9991C0.25 22.4091 0.59 22.7491 1 22.7491H19.93C19.95 22.7491 19.96 22.7592 19.98 22.7592C20 22.7592 20.01 22.7491 20.03 22.7491H23C23.41 22.7491 23.75 22.4091 23.75 21.9991C23.75 21.5891 23.41 21.2491 23 21.2491Z" fill="#212121" style="fill:#212121;fill:color(display-p3 0.1294 0.1294 0.1294);fill-opacity:1;"/>
</g>
</g>
<defs>
<clipPath id="clip0_2005_5865">
<rect width="24" height="24" fill="white" style="fill:white;fill-opacity:1;"/>
</clipPath>
</defs>
</svg>
