<svg width="24" height="24" viewBox="0 0 24 24" fill="none" xmlns="http://www.w3.org/2000/svg">
<g clip-path="url(#clip0_2005_6215)">
<mask id="mask0_2005_6215" style="mask-type:luminance" maskUnits="userSpaceOnUse" x="0" y="0" width="24" height="24">
<path d="M24 0H0V24H24V0Z" fill="white" style="fill:white;fill-opacity:1;"/>
</mask>
<g mask="url(#mask0_2005_6215)">
<path opacity="0.2" d="M20.6211 8.45C19.5711 3.83 15.5411 1.75 12.0011 1.75C12.0011 1.75 12.0011 1.75 11.9911 1.75C8.46107 1.75 4.42107 3.82 3.37107 8.44C2.20107 13.6 5.36107 17.97 8.22107 20.72C9.28107 21.74 10.6411 22.25 12.0011 22.25C13.3611 22.25 14.7211 21.74 15.7711 20.72C18.6311 17.97 21.7911 13.61 20.6211 8.45Z" fill="#212121" style="fill:#212121;fill:color(display-p3 0.1294 0.1294 0.1294);fill-opacity:1;"/>
<path d="M12.0016 13.4602C13.7413 13.4602 15.1516 12.0499 15.1516 10.3102C15.1516 8.57046 13.7413 7.16016 12.0016 7.16016C10.2619 7.16016 8.85156 8.57046 8.85156 10.3102C8.85156 12.0499 10.2619 13.4602 12.0016 13.4602Z" fill="#212121" style="fill:#212121;fill:color(display-p3 0.1294 0.1294 0.1294);fill-opacity:1;"/>
</g>
</g>
<defs>
<clipPath id="clip0_2005_6215">
<rect width="24" height="24" fill="white" style="fill:white;fill-opacity:1;"/>
</clipPath>
</defs>
</svg>
