<svg width="199" height="48" viewBox="0 0 199 48" fill="none" xmlns="http://www.w3.org/2000/svg">
<g style="mix-blend-mode:luminosity">
<g clip-path="url(#clip0_293_24938)">
<mask id="mask0_293_24938" style="mask-type:luminance" maskUnits="userSpaceOnUse" x="0" y="8" width="33" height="32">
<path d="M32.0273 8H0.0273438V40H32.0273V8Z" fill="white" style="fill:white;fill-opacity:1;"/>
</mask>
<g mask="url(#mask0_293_24938)">
<path d="M2.69336 33.1333V29.5333C2.69336 26.5333 3.89336 25.3333 6.89336 25.3333H10.4934C13.4934 25.3333 14.6934 26.5333 14.6934 29.5333V33.1333C14.6934 36.1333 13.4934 37.3333 10.4934 37.3333H6.89336" stroke="#A0A0A0" style="stroke:#A0A0A0;stroke:color(display-p3 0.6292 0.6292 0.6292);stroke-opacity:1;" stroke-width="2.5" stroke-linecap="round" stroke-linejoin="round"/>
<path d="M29.3607 28C29.3607 33.16 25.1873 37.3334 20.0273 37.3334L21.4273 35" stroke="#A0A0A0" style="stroke:#A0A0A0;stroke:color(display-p3 0.6292 0.6292 0.6292);stroke-opacity:1;" stroke-width="2.5" stroke-linecap="round" stroke-linejoin="round"/>
<path d="M2.69336 20C2.69336 14.84 6.86669 10.6667 12.0267 10.6667L10.6267 13" stroke="#212121" style="stroke:#212121;stroke:color(display-p3 0.1294 0.1294 0.1294);stroke-opacity:1;" stroke-width="2.5" stroke-linecap="round" stroke-linejoin="round"/>
<path d="M23.3594 22.6667C26.6731 22.6667 29.3594 19.9804 29.3594 16.6667C29.3594 13.353 26.6731 10.6667 23.3594 10.6667C20.0456 10.6667 17.3594 13.353 17.3594 16.6667C17.3594 19.9804 20.0456 22.6667 23.3594 22.6667Z" stroke="#212121" style="stroke:#212121;stroke:color(display-p3 0.1294 0.1294 0.1294);stroke-opacity:1;" stroke-width="2.5" stroke-linecap="round" stroke-linejoin="round"/>
</g>
</g>
<path d="M48.0273 37.5229V11.8349H51.3692L64.2044 31.945V11.8349H67.2892V37.5229H63.9656L51.1122 17.4128V37.5229H48.0273Z" fill="#212121" style="fill:#212121;fill:color(display-p3 0.1294 0.1294 0.1294);fill-opacity:1;"/>
<path d="M81.1274 38C79.4381 38 77.8957 37.5657 76.5002 36.6972C75.1169 35.8287 74.009 34.6667 73.1766 33.211C72.3565 31.7431 71.9464 30.1223 71.9464 28.3486C71.9464 27.0031 72.1851 25.7492 72.6625 24.5872C73.1399 23.4128 73.7948 22.3853 74.6272 21.5046C75.4719 20.6116 76.4512 19.9144 77.5652 19.4128C78.6791 18.9113 79.8666 18.6606 81.1274 18.6606C82.5107 18.6606 83.7777 18.9419 84.9284 19.5046C86.0913 20.055 87.0829 20.8257 87.903 21.8165C88.7355 22.8073 89.3536 23.9572 89.7576 25.2661C90.1738 26.5749 90.3268 27.9755 90.2167 29.4679H75.2332C75.3801 30.5076 75.7228 31.4373 76.2615 32.2569C76.8001 33.0642 77.4856 33.7064 78.318 34.1835C79.1627 34.6605 80.0991 34.9052 81.1274 34.9174C82.2291 34.9174 83.2268 34.6361 84.1204 34.0734C85.0141 33.4985 85.7363 32.7156 86.2872 31.7248L89.4271 32.4587C88.6926 34.0856 87.5848 35.419 86.1035 36.4587C84.6223 37.4862 82.9636 38 81.1274 38ZM75.1414 27.0459H87.1135C87.0155 26.0183 86.685 25.0826 86.1219 24.2385C85.5588 23.3823 84.8427 22.6972 83.9735 22.1835C83.1044 21.6697 82.1557 21.4128 81.1274 21.4128C80.0991 21.4128 79.1566 21.6636 78.2997 22.1651C77.4428 22.6667 76.7328 23.3456 76.1697 24.2018C75.6188 25.0459 75.276 25.9939 75.1414 27.0459Z" fill="#212121" style="fill:#212121;fill:color(display-p3 0.1294 0.1294 0.1294);fill-opacity:1;"/>
<path d="M102.813 38C101.124 38 99.5811 37.5657 98.1856 36.6972C96.8023 35.8287 95.6945 34.6667 94.8621 33.211C94.0419 31.7431 93.6318 30.1223 93.6318 28.3486C93.6318 27.0031 93.8705 25.7492 94.3479 24.5872C94.8254 23.4128 95.4803 22.3853 96.3127 21.5046C97.1573 20.6116 98.1367 19.9144 99.2506 19.4128C100.365 18.9113 101.552 18.6606 102.813 18.6606C104.196 18.6606 105.463 18.9419 106.614 19.5046C107.777 20.055 108.768 20.8257 109.588 21.8165C110.421 22.8073 111.039 23.9572 111.443 25.2661C111.859 26.5749 112.012 27.9755 111.902 29.4679H96.9186C97.0655 30.5076 97.4083 31.4373 97.9469 32.2569C98.4855 33.0642 99.1711 33.7064 100.003 34.1835C100.848 34.6605 101.785 34.9052 102.813 34.9174C103.915 34.9174 104.912 34.6361 105.806 34.0734C106.7 33.4985 107.422 32.7156 107.973 31.7248L111.113 32.4587C110.378 34.0856 109.27 35.419 107.789 36.4587C106.308 37.4862 104.649 38 102.813 38ZM96.8268 27.0459H108.799C108.701 26.0183 108.37 25.0826 107.807 24.2385C107.244 23.3823 106.528 22.6972 105.659 22.1835C104.79 21.6697 103.841 21.4128 102.813 21.4128C101.785 21.4128 100.842 21.6636 99.9851 22.1651C99.1282 22.6667 98.4182 23.3456 97.8551 24.2018C97.3042 25.0459 96.9615 25.9939 96.8268 27.0459Z" fill="#212121" style="fill:#212121;fill:color(display-p3 0.1294 0.1294 0.1294);fill-opacity:1;"/>
<path d="M131.2 10H134.285V37.5229H131.2V34.4037C130.576 35.4801 129.738 36.3486 128.685 37.0092C127.632 37.6697 126.396 38 124.976 38C123.641 38 122.393 37.7492 121.23 37.2477C120.067 36.7462 119.039 36.055 118.145 35.1743C117.264 34.2813 116.572 33.2538 116.07 32.0917C115.568 30.9297 115.317 29.682 115.317 28.3486C115.317 27.0153 115.568 25.7676 116.07 24.6055C116.572 23.4312 117.264 22.4037 118.145 21.5229C119.039 20.63 120.067 19.9327 121.23 19.4312C122.393 18.9297 123.641 18.6789 124.976 18.6789C126.396 18.6789 127.632 19.0092 128.685 19.6697C129.738 20.3303 130.576 21.1988 131.2 22.2752V10ZM125.012 35.0092C126.224 35.0092 127.271 34.7156 128.152 34.1284C129.046 33.5291 129.732 32.7217 130.209 31.7064C130.699 30.6911 130.943 29.5719 130.943 28.3486C130.943 27.1009 130.699 25.9755 130.209 24.9725C129.719 23.9572 129.028 23.156 128.134 22.5688C127.253 21.9694 126.212 21.6697 125.012 21.6697C123.801 21.6697 122.699 21.9694 121.707 22.5688C120.728 23.1682 119.945 23.9755 119.357 24.9908C118.769 25.9939 118.476 27.1131 118.476 28.3486C118.476 29.5841 118.775 30.7095 119.375 31.7248C119.975 32.7278 120.771 33.5291 121.762 34.1284C122.754 34.7156 123.837 35.0092 125.012 35.0092Z" fill="#212121" style="fill:#212121;fill:color(display-p3 0.1294 0.1294 0.1294);fill-opacity:1;"/>
<path d="M140.22 37.5229V11.8349H145.692L155.718 28.367V11.8349H160.786V37.5229H155.314L145.288 20.9908V37.5229H140.22Z" fill="#A0A0A0" style="fill:#A0A0A0;fill:color(display-p3 0.6292 0.6292 0.6292);fill-opacity:1;"/>
<path d="M174.432 38C172.743 38 171.201 37.5657 169.805 36.6972C168.422 35.8287 167.314 34.6605 166.481 33.1927C165.661 31.7248 165.251 30.104 165.251 28.3303C165.251 26.9969 165.49 25.7492 165.967 24.5872C166.445 23.4128 167.1 22.3853 167.932 21.5046C168.777 20.6116 169.756 19.9144 170.87 19.4128C171.984 18.9113 173.171 18.6606 174.432 18.6606C175.889 18.6606 177.217 18.9725 178.417 19.5963C179.629 20.2202 180.651 21.0703 181.483 22.1468C182.328 23.2232 182.928 24.4404 183.283 25.7982C183.65 27.156 183.711 28.5688 183.466 30.0367H170.723C170.882 30.5749 171.127 31.0642 171.458 31.5046C171.8 31.9327 172.217 32.2752 172.706 32.5321C173.208 32.789 173.783 32.9235 174.432 32.9358C175.069 32.948 175.656 32.8012 176.195 32.4954C176.734 32.1896 177.193 31.7798 177.572 31.2661L182.75 32.4587C182.004 34.0856 180.89 35.419 179.408 36.4587C177.927 37.4862 176.268 38 174.432 38ZM170.539 26.2936H178.343C178.184 25.682 177.915 25.1315 177.535 24.6422C177.156 24.1529 176.697 23.7676 176.158 23.4862C175.632 23.2049 175.057 23.0642 174.432 23.0642C173.82 23.0642 173.245 23.2049 172.706 23.4862C172.18 23.7676 171.727 24.1529 171.347 24.6422C170.98 25.1193 170.711 25.6697 170.539 26.2936Z" fill="#A0A0A0" style="fill:#A0A0A0;fill:color(display-p3 0.6292 0.6292 0.6292);fill-opacity:1;"/>
<path d="M198.027 24.2385H194.722V37.5229H189.654V24.2385H187.12V19.1743H189.654V13.4128H194.722V19.1743H198.027V24.2385Z" fill="#A0A0A0" style="fill:#A0A0A0;fill:color(display-p3 0.6292 0.6292 0.6292);fill-opacity:1;"/>
</g>
<defs>
<clipPath id="clip0_293_24938">
<rect width="32" height="32" fill="white" style="fill:white;fill-opacity:1;" transform="translate(0.0273438 8)"/>
</clipPath>
</defs>
</svg>
