<svg width="24" height="24" viewBox="0 0 24 24" fill="none" xmlns="http://www.w3.org/2000/svg">
<mask id="mask0_2005_2146" style="mask-type:luminance" maskUnits="userSpaceOnUse" x="0" y="1" width="24" height="23">
<path d="M24 1.10938H0V23.9665H24V1.10938Z" fill="white" style="fill:white;fill-opacity:1;"/>
</mask>
<g mask="url(#mask0_2005_2146)">
<path opacity="0.2" d="M17.028 1.10938H6.972C2.604 1.10938 0 3.58937 0 7.74937V17.3265C0 21.4865 2.604 23.9665 6.972 23.9665H17.028C21.396 23.9665 24 21.4865 24 17.3265V7.74937C24 3.58937 21.396 1.10938 17.028 1.10938Z" fill="#212121" style="fill:#212121;fill:color(display-p3 0.1294 0.1294 0.1294);fill-opacity:1;"/>
<path d="M19.5727 8.95982C19.5727 9.42839 19.1767 9.81696 18.6727 9.81696H12.3727C11.8807 9.81696 11.4727 9.42839 11.4727 8.95982C11.4727 8.49125 11.8807 8.10268 12.3727 8.10268H18.6727C19.1767 8.10268 19.5727 8.49125 19.5727 8.95982Z" fill="#212121" style="fill:#212121;fill:color(display-p3 0.1294 0.1294 0.1294);fill-opacity:1;"/>
<path d="M9.56388 7.85286L6.86387 10.4243C6.68387 10.5957 6.45588 10.6757 6.22788 10.6757C5.99988 10.6757 5.75988 10.5957 5.59188 10.4243L4.69188 9.56715C4.33187 9.23572 4.33187 8.68715 4.69188 8.35572C5.03988 8.02429 5.60388 8.02429 5.96388 8.35572L6.22788 8.60715L8.29188 6.64143C8.63987 6.31 9.20388 6.31 9.56388 6.64143C9.91188 6.97286 9.91188 7.52143 9.56388 7.85286Z" fill="#212121" style="fill:#212121;fill:color(display-p3 0.1294 0.1294 0.1294);fill-opacity:1;"/>
<path d="M19.5727 16.9598C19.5727 17.4283 19.1767 17.8169 18.6727 17.8169H12.3727C11.8807 17.8169 11.4727 17.4283 11.4727 16.9598C11.4727 16.4912 11.8807 16.1026 12.3727 16.1026H18.6727C19.1767 16.1026 19.5727 16.4912 19.5727 16.9598Z" fill="#212121" style="fill:#212121;fill:color(display-p3 0.1294 0.1294 0.1294);fill-opacity:1;"/>
<path d="M9.56388 15.8528L6.86387 18.4243C6.68387 18.5958 6.45588 18.6757 6.22788 18.6757C5.99988 18.6757 5.75988 18.5958 5.59188 18.4243L4.69188 17.5672C4.33187 17.2358 4.33187 16.6871 4.69188 16.3557C5.03988 16.0243 5.60388 16.0243 5.96388 16.3557L6.22788 16.6071L8.29188 14.6415C8.63987 14.3101 9.20388 14.3101 9.56388 14.6415C9.91188 14.9728 9.91188 15.5214 9.56388 15.8528Z" fill="#212121" style="fill:#212121;fill:color(display-p3 0.1294 0.1294 0.1294);fill-opacity:1;"/>
</g>
</svg>
